<?xml version="1.0" encoding="UTF-8" standalone="no"?>
<!-- Created with Inkscape (http://www.inkscape.org/) -->

<svg
   xmlns:dc="http://purl.org/dc/elements/1.1/"
   xmlns:cc="http://creativecommons.org/ns#"
   xmlns:rdf="http://www.w3.org/1999/02/22-rdf-syntax-ns#"
   xmlns:svg="http://www.w3.org/2000/svg"
   xmlns="http://www.w3.org/2000/svg"
   xmlns:sodipodi="http://sodipodi.sourceforge.net/DTD/sodipodi-0.dtd"
   xmlns:inkscape="http://www.inkscape.org/namespaces/inkscape"
   width="50"
   height="50"
   viewBox="0 0 13.229166 13.229168"
   version="1.1"
   id="svg1134"
   inkscape:version="0.92.3 (2405546, 2018-03-11)"
   sodipodi:docname="logo.svg">
  <defs
     id="defs1128" />
  <sodipodi:namedview
     id="base"
     pagecolor="#ffffff"
     bordercolor="#666666"
     borderopacity="1.0"
     inkscape:pageopacity="0.0"
     inkscape:pageshadow="2"
     inkscape:zoom="7.9195959"
     inkscape:cx="74.311716"
     inkscape:cy="-1.8090255"
     inkscape:document-units="px"
     inkscape:current-layer="layer1"
     showgrid="false"
     units="px"
     inkscape:window-width="3706"
     inkscape:window-height="2049"
     inkscape:window-x="134"
     inkscape:window-y="55"
     inkscape:window-maximized="1" />
  <metadata
     id="metadata1131">
    <rdf:RDF>
      <cc:Work
         rdf:about="">
        <dc:format>image/svg+xml</dc:format>
        <dc:type
           rdf:resource="http://purl.org/dc/dcmitype/StillImage" />
        <dc:title></dc:title>
      </cc:Work>
    </rdf:RDF>
  </metadata>
  <g
     inkscape:label="Layer 1"
     inkscape:groupmode="layer"
     id="layer1"
     transform="translate(0,-283.77082)">
    <path
       style="fill:#1ac6b0;fill-opacity:1;stroke-width:0.34653172"
       d="M 25 0 A 24.999995 24.999987 0 0 0 0 25 A 24.999995 24.999987 0 0 0 4.15625 38.773438 L 0 42.929688 L 7.0703125 50 L 11.224609 45.845703 A 24.999995 24.999987 0 0 0 25 50 A 24.999995 24.999987 0 0 0 50 25 A 24.999995 24.999987 0 0 0 45.84375 11.228516 L 50 7.0722656 L 42.927734 0 L 38.775391 4.1542969 A 24.999995 24.999987 0 0 0 25 0 z M 25 10 A 14.999996 14.999992 0 0 1 31.451172 11.478516 L 11.474609 31.453125 A 14.999996 14.999992 0 0 1 10 25 A 14.999996 14.999992 0 0 1 25 10 z M 38.525391 18.546875 A 14.999996 14.999992 0 0 1 40 25 A 14.999996 14.999992 0 0 1 25 40 A 14.999996 14.999992 0 0 1 18.548828 38.521484 L 38.525391 18.546875 z "
       transform="matrix(0.26458334,0,0,0.26458334,0,283.77082)"
       id="path1111" />
  </g>
</svg>
